PathFileType	4	(X/Y/Z) abd_0kg_1.trc																										
DataRate	CameraRate	NumFrames	NumMarkers	Units	OrigDataRate	OrigDataStartFrame	OrigNumFrames																					
100	100	34	9	mm	100	819	1091																					
Frame#	Time	gu			centelbow			EpL			centpxt8			centijc7			ij			ts			aa			ai		
		X1	Y1	Z1	X2	Y2	Z2	X3	Y3	Z3	X4	Y4	Z4	X5	Y5	Z5	X6	Y6	Z6	X7	Y7	Z7	X8	Y8	Z8	X9	Y9	Z9  
818	8.18	-100.445	44.542	129.295	-80.554	48.099	375.417	-98.593	74.658	372.485	-46.816	-153.158	-8.669	-46.816	31.938	-8.669	0	0	0	-128.536	5.887	17.704	-137.899	52.877	126.925	-123.09	-95.902	67.655
819	8.19	-100.825	44.225	129.95	-81.608	45.077	376.15	-99.626	71.677	373.459	-46.816	-153.158	-8.669	-46.816	31.938	-8.669	0	0	0	-128.654	6.166	17.722	-138.198	52.813	127.074	-123.035	-95.758	67.376
820	8.2	-100.932	43.661	130.662	-82.259	41.99	376.9	-100.272	68.615	374.442	-46.816	-153.158	-8.669	-46.816	31.938	-8.669	0	0	0	-128.531	6.294	17.782	-138.294	52.652	127.237	-122.681	-95.734	67.197
821	8.21	-100.776	43.209	131.191	-82.472	39.192	377.429	-100.514	65.817	375.199	-46.816	-153.158	-8.669	-46.816	31.938	-8.669	0	0	0	-128.045	6.276	17.932	-138.061	52.399	127.463	-121.913	-95.824	67.162
822	8.22	-100.647	43.124	131.443	-82.62	36.804	377.653	-100.724	63.407	375.656	-46.816	-153.158	-8.669	-46.816	31.938	-8.669	0	0	0	-127.417	6.205	18.155	-137.687	52.107	127.756	-120.986	-95.958	67.217
823	8.23	-100.768	43.319	131.583	-83.077	34.582	377.743	-101.253	61.152	375.987	-46.816	-153.158	-8.669	-46.816	31.938	-8.669	0	0	0	-126.954	6.167	18.407	-137.452	51.823	128.089	-120.26	-96.073	67.273
824	8.24	-101.141	43.59	131.834	-83.93	32.253	377.923	-102.174	58.792	376.414	-46.816	-153.158	-8.669	-46.816	31.938	-8.669	0	0	0	-126.768	6.297	18.599	-137.478	51.693	128.368	-119.854	-96.028	67.254
825	8.25	-101.495	43.636	132.353	-84.884	29.527	378.34	-103.185	56.04	377.087	-46.816	-153.158	-8.669	-46.816	31.938	-8.669	0	0	0	-126.727	6.646	18.725	-137.665	51.817	128.564	-119.605	-95.749	67.203
826	8.26	-101.526	43.211	133.16	-85.503	26.22	379.003	-103.847	52.714	378.018	-46.816	-153.158	-8.669	-46.816	31.938	-8.669	0	0	0	-126.64	6.982	18.897	-137.819	51.994	128.777	-119.294	-95.451	67.262
827	8.27	-101.285	42.633	133.958	-85.624	22.761	379.608	-104.01	49.235	378.908	-46.816	-153.158	-8.669	-46.816	31.938	-8.669	0	0	0	-126.473	7.139	19.055	-137.862	52.025	128.966	-118.862	-95.312	67.339
828	8.28	-101.097	42.562	134.38	-85.464	19.889	379.79	-103.911	46.327	379.389	-46.816	-153.158	-8.669	-46.816	31.938	-8.669	0	0	0	-126.28	7.339	18.972	-137.816	52.052	128.938	-118.36	-95.149	67.127
829	8.29	-101.214	43.028	134.496	-85.43	17.661	379.632	-103.952	44.049	379.532	-46.816	-153.158	-8.669	-46.816	31.938	-8.669	0	0	0	-126.055	7.731	18.716	-137.697	52.172	128.781	-117.86	-94.841	66.646
830	8.3	-101.59	43.421	134.634	-85.723	15.46	379.482	-104.308	41.803	379.668	-46.816	-153.158	-8.669	-46.816	31.938	-8.669	0	0	0	-125.805	8.043	18.64	-137.559	52.15	128.827	-117.466	-94.653	66.279
831	8.31	-101.887	43.39	134.942	-86.147	12.884	379.495	-104.767	39.2	379.944	-46.816	-153.158	-8.669	-46.816	31.938	-8.669	0	0	0	-125.598	8.057	18.874	-137.49	51.855	129.17	-117.242	-94.764	66.241
832	8.32	-101.846	43.183	135.386	-86.462	10.083	379.623	-105.09	36.388	380.324	-46.816	-153.158	-8.669	-46.816	31.938	-8.669	0	0	0	-125.396	8.005	19.238	-137.444	51.583	129.604	-117.052	-94.904	66.415
833	8.33	-101.607	43.259	135.8	-86.707	7.427	379.682	-105.318	33.735	380.641	-46.816	-153.158	-8.669	-46.816	31.938	-8.669	0	0	0	-125.112	8.232	19.499	-137.303	51.66	129.909	-116.715	-94.728	66.555
834	8.34	-101.497	43.704	136.053	-87.095	4.963	379.519	-105.663	31.29	380.757	-46.816	-153.158	-8.669	-46.816	31.938	-8.669	0	0	0	-124.881	8.766	19.526	-137.173	52.058	129.978	-116.367	-94.235	66.474
835	8.35	-101.609	44.05	136.374	-87.786	2.182	379.356	-106.27	28.553	380.893	-46.816	-153.158	-8.669	-46.816	31.938	-8.669	0	0	0	-124.929	9.339	19.368	-137.274	52.465	129.879	-116.304	-93.717	66.173
836	8.36	-101.763	43.851	137.085	-88.711	-1.367	379.509	-107.071	25.069	381.361	-46.816	-153.158	-8.669	-46.816	31.938	-8.669	0	0	0	-125.153	9.647	19.253	-137.547	52.538	129.849	-116.529	-93.506	65.844
837	8.37	-101.85	43.126	138.003	-89.634	-5.507	379.809	-107.857	20.999	381.982	-46.816	-153.158	-8.669	-46.816	31.938	-8.669	0	0	0	-125.258	9.612	19.342	-137.742	52.172	130.056	-116.801	-93.694	65.623
838	8.38	-101.966	42.183	138.641	-90.397	-9.672	379.808	-108.497	16.892	382.299	-46.816	-153.158	-8.669	-46.816	31.938	-8.669	0	0	0	-125.201	9.403	19.535	-137.815	51.563	130.387	-117.013	-94.094	65.437
839	8.39	-102.217	41.379	138.934	-91.076	-13.413	379.471	-109.077	13.188	382.264	-46.816	-153.158	-8.669	-46.816	31.938	-8.669	0	0	0	-125.17	9.246	19.651	-137.939	51.025	130.629	-117.227	-94.428	65.195
840	8.4	-102.639	40.992	139.183	-91.868	-16.576	379.087	-109.787	10.049	382.17	-46.816	-153.158	-8.669	-46.816	31.938	-8.669	0	0	0	-125.252	9.312	19.67	-138.201	50.819	130.73	-117.437	-94.479	64.969
841	8.41	-103.148	41.144	139.463	-92.745	-19.213	378.697	-110.579	7.432	382.073	-46.816	-153.158	-8.669	-46.816	31.938	-8.669	0	0	0	-125.28	9.665	19.626	-138.417	50.998	130.729	-117.471	-94.189	64.781
842	8.42	-103.505	41.617	139.707	-93.454	-21.678	378.196	-111.181	4.997	381.888	-46.816	-153.158	-8.669	-46.816	31.938	-8.669	0	0	0	-125.093	10.239	19.505	-138.373	51.399	130.655	-117.246	-93.675	64.516
843	8.43	-103.531	41.78	140.1	-93.92	-24.7	377.739	-111.499	2.022	381.776	-46.816	-153.158	-8.669	-46.816	31.938	-8.669	0	0	0	-124.855	10.87	19.394	-138.191	51.793	130.625	-117.031	-93.139	64.187
844	8.44	-103.298	41.142	140.821	-94.31	-28.771	377.498	-111.707	-1.987	381.904	-46.816	-153.158	-8.669	-46.816	31.938	-8.669	0	0	0	-124.845	11.344	19.455	-138.169	51.967	130.797	-117.18	-92.804	63.954
845	8.45	-103.014	39.893	141.69	-94.735	-33.562	377.317	-111.948	-6.725	382.103	-46.816	-153.158	-8.669	-46.816	31.938	-8.669	0	0	0	-125.004	11.512	19.692	-138.286	51.807	131.158	-117.628	-92.799	63.856
846	8.46	-102.849	38.54	142.429	-95.17	-38.374	376.971	-112.238	-11.515	382.133	-46.816	-153.158	-8.669	-46.816	31.938	-8.669	0	0	0	-125.098	11.439	19.901	-138.316	51.417	131.489	-118.032	-93.032	63.737
847	8.47	-102.931	37.444	142.94	-95.634	-42.765	376.387	-112.61	-15.92	381.917	-46.816	-153.158	-8.669	-46.816	31.938	-8.669	0	0	0	-125.127	11.306	19.93	-138.27	51.015	131.622	-118.279	-93.295	63.489
848	8.48	-103.267	36.851	143.256	-96.156	-46.58	375.577	-113.075	-19.777	381.476	-46.816	-153.158	-8.669	-46.816	31.938	-8.669	0	0	0	-125.166	11.232	19.879	-138.255	50.732	131.652	-118.43	-93.464	63.227
849	8.49	-103.627	36.695	143.586	-96.633	-50.044	374.696	-113.501	-23.296	380.978	-46.816	-153.158	-8.669	-46.816	31.938	-8.669	0	0	0	-125.158	11.279	19.94	-138.238	50.581	131.784	-118.503	-93.502	63.096
850	8.5	-103.76	36.378	144.158	-97	-53.837	373.939	-113.79	-27.138	380.624	-46.816	-153.158	-8.669	-46.816	31.938	-8.669	0	0	0	-125.146	11.45	20.126	-138.245	50.472	132.066	-118.611	-93.449	63.012
851	8.51	-103.664	35.362	144.918	-97.35	-58.446	373.27	-114.03	-31.785	380.365	-46.816	-153.158	-8.669	-46.816	31.938	-8.669	0	0	0	-125.248	11.696	20.31	-138.353	50.271	132.404	-118.912	-93.392	62.76
